PathFileType	4	(X/Y/Z)	C:\Users\Basilio\Documents\Thesis Gigler\squatting_fais\c3dfiles\019\SLS_front_pre1\markers_experimental.trc
DataRate	CameraRate	NumFrames	NumMarkers	Units	OrigDataRate	OrigDataStartFrame	OrigNumFrames
200.000000	200.000000	4	59	mm	200.000000	1223	1631
Frame#	Time	LBHD			RBHD			C7			T10			CLAV			LSHO			LUUPA			LMUPA			LDUPA			LLEP			LMEP			LRAD			LUL			LRFIN			RSHO			RUPA1			RMUPA			RDUPA			RLEP			RRAD			RUL			RUFIN			LASI			RASI			USACR			LSACR			RSACR			LTHI1			LTHI2			LTHI3			LTHI4			LLFC			LTIB1			LTIB2			LTIB3			LTIB4			LLMAL			LMMAL			LHEE			LMT1			LMT2			LMT5			RTHI			RTHI3			RTHI4			RLFC			RTIB1			RTIB2			RTIB3			RTIB4			RLMAL			RMMAL			RHEE			RMT1			RMT2			RMT5			FHD			RTHI2			RMEP			
		X1	Y1	Z1	X2	Y2	Z2	X3	Y3	Z3	X4	Y4	Z4	X5	Y5	Z5	X6	Y6	Z6	X7	Y7	Z7	X8	Y8	Z8	X9	Y9	Z9	X10	Y10	Z10	X11	Y11	Z11	X12	Y12	Z12	X13	Y13	Z13	X14	Y14	Z14	X15	Y15	Z15	X16	Y16	Z16	X17	Y17	Z17	X18	Y18	Z18	X19	Y19	Z19	X20	Y20	Z20	X21	Y21	Z21	X22	Y22	Z22	X23	Y23	Z23	X24	Y24	Z24	X25	Y25	Z25	X26	Y26	Z26	X27	Y27	Z27	X28	Y28	Z28	X29	Y29	Z29	X30	Y30	Z30	X31	Y31	Z31	X32	Y32	Z32	X33	Y33	Z33	X34	Y34	Z34	X35	Y35	Z35	X36	Y36	Z36	X37	Y37	Z37	X38	Y38	Z38	X39	Y39	Z39	X40	Y40	Z40	X41	Y41	Z41	X42	Y42	Z42	X43	Y43	Z43	X44	Y44	Z44	X45	Y45	Z45	X46	Y46	Z46	X47	Y47	Z47	X48	Y48	Z48	X49	Y49	Z49	X50	Y50	Z50	X51	Y51	Z51	X52	Y52	Z52	X53	Y53	Z53	X54	Y54	Z54	X55	Y55	Z55	X56	Y56	Z56	X57	Y57	Z57	X58	Y58	Z58	X59	Y59	Z59	

1224	6.115	-407.8099365234376	1693.716064453125	-804.191345214844	-404.2907104492189	1687.184204101563	-664.6150512695314	-438.4883422851564	1515.475341796875	-725.6655273437501	-472.2552185058595	1224.262573242188	-708.6274414062501	-302.2792358398438	1471.78173828125	-737.9147949218751	-369.6579589843751	1525.85107421875	-865.4151611328127	-250.4132080078126	1500.91015625	-930.7194824218752	-221.6522064208985	1490.591430664063	-891.8085937500002	-184.0020141601563	1496.93701171875	-937.5893554687502	-116.1133422851563	1472.088134765625	-979.8029785156252	-117.6441345214844	1411.913452148438	-973.4879150390627	135.428955078125	1460.050903320313	-897.2194824218752	132.671875	1470.992919921875	-964.4322509765627	205.8248748779297	1474.837524414063	-893.8020019531252	-351.2500305175782	1513.675048828125	-610.7724609375001	-233.819076538086	1450.90625	-505.2231445312501	-208.8637847900391	1474.945678710938	-539.6936645507814	-164.6813049316407	1447.127197265625	-501.7614135742189	-88.65909576416017	1443.872680664063	-511.2117004394532	143.806396484375	1453.82861328125	-608.2885131835939	159.7860107421875	1463.609497070313	-544.3071289062501	230.6664123535157	1469.44091796875	-616.2138061523439	-338.9265747070313	1038.678466796875	-846.448181152344	-306.3132019042969	1002.082946777344	-643.0341186523439	-477.2328186035157	1091.269775390625	-711.6433715820314	-489.6423645019532	1062.806396484375	-742.3756713867189	-475.7005310058595	1057.658813476563	-686.7018432617189	-251.9113922119141	872.291442871094	-939.4793090820315	-166.6468048095703	865.7861938476565	-936.6888427734377	-145.0725402832032	902.687683105469	-915.3008422851565	-133.5798645019532	814.2175903320315	-935.2687988281252	-67.09777069091798	751.9879760742189	-917.4682617187502	-10.12657737731934	620.3285522460939	-889.933044433594	-71.43350219726564	581.9960937500001	-940.5565185546877	-34.96080398559571	575.9124755859376	-917.975524902344	-44.13287734985352	496.4837951660157	-882.7552490234377	-126.9153518676758	377.2533264160157	-905.8809814453127	-102.3280563354492	381.0117797851563	-823.7301025390627	-195.6520690917969	357.8535461425782	-850.1772460937502	10.32908058166504	276.6987304687501	-844.787292480469	7.910727500915529	279.9324645996094	-879.771667480469	-43.41708755493165	265.4252319335938	-927.2622070312502	-336.2979431152344	795.7868652343752	-583.9660034179689	-270.5687866210938	754.1517333984376	-625.3839111328126	-311.4899291992188	669.2629394531251	-603.0538330078126	-337.3195495605469	511.3917541503907	-643.8691406250001	-302.2379150390626	337.5502929687501	-723.4328613281251	-347.9456176757813	253.1569366455079	-668.4865112304689	-317.9650573730469	253.287582397461	-705.2404785156251	-335.1243286132813	215.5283203125001	-747.3398437500001	-391.9796142578126	127.3444213867188	-703.9878540039064	-381.3390808105469	135.1528625488282	-778.9224853515627	-456.0120849609376	105.7266387939453	-750.7149658203126	-258.7352905273438	53.51174163818361	-781.4976806640627	-252.7005615234376	62.33229446411134	-737.3703002929689	-290.3434753417969	52.4337501525879	-681.3511962890626	-270.0618591308594	1718.356567382813	-669.0504760742189	-293.3643493652344	747.7441406250001	-600.7406005859376	-98.16592407226565	1383.393188476563	-519.9163208007814	
1225	6.12	-408.0324707031251	1693.675659179688	-804.533630371094	-404.6956481933595	1687.131591796875	-664.9014892578126	-438.7055969238282	1515.388671875	-725.8885498046876	-472.0034484863282	1224.081787109375	-708.6342163085939	-302.4937133789063	1471.788330078125	-738.0643920898439	-369.8993835449219	1525.643310546875	-865.6984863281252	-250.8787231445313	1500.742309570313	-931.1046142578127	-222.4356842041016	1490.102416992188	-892.5300903320315	-184.5521697998047	1496.683837890625	-938.1064453125002	-116.4481735229492	1471.92431640625	-980.229431152344	-117.9655914306641	1411.72998046875	-973.9175415039065	135.0135803222657	1459.990966796875	-897.7476806640627	132.2318572998047	1470.963134765625	-965.1016235351565	205.6528472900391	1474.646240234375	-893.9896240234377	-351.5331115722657	1513.747192382813	-610.9724121093751	-233.9765014648438	1450.802124023438	-505.4902648925782	-209.1079101562501	1474.896728515625	-539.8469848632814	-164.9286651611328	1447.049682617188	-501.8804626464845	-88.84939575195314	1443.809204101563	-511.3680725097657	143.50634765625	1453.88134765625	-610.9471435546876	159.63232421875	1463.752319335938	-544.5001831054689	230.5672149658204	1469.738647460938	-616.3535156250001	-338.3284912109376	1038.595947265625	-846.389343261719	-305.7892761230469	1002.150817871094	-642.9267578125001	-476.7172851562501	1091.263061523438	-711.5558471679689	-489.0927124023439	1062.70361328125	-742.2920532226564	-475.154510498047	1057.520141601563	-686.6108398437501	-251.4864044189454	872.0899658203127	-939.3842773437502	-166.3291931152344	865.561462402344	-936.6835937500002	-144.9212799072266	902.3904418945315	-915.3037719726565	-133.1243743896485	813.8709716796877	-935.1141357421877	-66.62783813476564	751.5504150390626	-917.3424072265627	-10.00619411468506	619.7785034179689	-889.6973876953127	-71.54104614257814	581.6820068359376	-940.4568481445315	-35.02973175048829	575.5214843750001	-917.7924804687502	-44.35818099975587	496.1229553222657	-882.6575317382815	-127.5597534179688	377.0970764160157	-905.7254028320315	-102.9190139770508	380.8233032226563	-823.6267089843752	-196.0874786376954	357.7666320800782	-850.0684204101565	9.58585834503174	276.0968322753907	-844.4962158203127	8.218791007995607	279.2825927734376	-879.1519165039065	-44.23850631713868	265.0312805175782	-927.105651855469	-336.1084594726563	795.7730712890627	-583.8244018554689	-270.4231872558594	754.0048217773439	-625.1183471679689	-311.6245727539063	669.2659912109376	-602.8919677734376	-337.5505065917969	511.3729858398439	-643.8187255859376	-302.2396545410157	337.5720825195313	-723.3697509765626	-347.9672546386719	253.0967559814454	-668.4875488281251	-315.9286193847657	248.6896667480469	-704.6225585937501	-335.1582336425782	215.5131072998047	-747.3191528320314	-392.0383605957032	127.3307113647461	-703.9958496093751	-381.3076171875001	135.10009765625	-778.8901367187502	-456.0633850097657	105.7638473510742	-750.7031250000001	-258.7551879882813	53.51259994506837	-781.5285644531252	-252.7002563476563	62.33588027954103	-737.3723144531251	-290.3472900390626	52.44108963012697	-681.3492431640626	-270.6105651855469	1718.4130859375	-669.2216186523439	-293.4146118164063	747.3084106445314	-601.0988159179689	-98.35916137695315	1383.373046875	-520.5859375000001	
1226	6.125	-408.2933044433595	1693.635986328125	-804.8483886718752	-405.044647216797	1687.10009765625	-665.0700073242189	-438.9747009277345	1515.292236328125	-726.1121215820314	-471.8542785644532	1223.870483398438	-708.6292724609376	-302.7334289550782	1471.783447265625	-738.3299560546876	-370.2654418945313	1525.405639648438	-866.0281372070315	-251.309066772461	1500.526000976563	-931.612731933594	-222.6708526611329	1489.882568359375	-892.861755371094	-184.9607849121094	1496.519653320313	-938.518005371094	-116.7161026000977	1471.678833007813	-980.6749267578127	-118.2123489379883	1411.554321289063	-974.286560058594	134.7707061767578	1459.908935546875	-898.5119628906252	132.2881927490235	1471.010864257813	-965.514343261719	205.3081207275391	1474.62060546875	-895.1204833984377	-351.7624816894532	1513.521118164063	-610.9908447265626	-234.2045440673829	1450.643676757813	-505.5516357421876	-209.2248687744141	1474.723999023438	-539.9218750000001	-165.2017669677735	1446.964233398438	-502.1223449707032	-89.05245971679689	1443.771240234375	-511.5119934082032	143.2468566894532	1453.913452148438	-611.1735229492189	159.3975677490235	1463.78857421875	-544.6741943359376	230.4734191894532	1469.699340820313	-616.4724731445314	-337.7462158203126	1038.406982421875	-846.3284301757815	-305.3478698730469	1002.262145996094	-642.8247070312501	-476.1741638183595	1091.151123046875	-711.4843750000001	-488.8005981445314	1062.557373046875	-742.3017578125001	-474.6877746582032	1057.38720703125	-686.5388183593751	-251.0876617431641	871.8040771484377	-939.342224121094	-165.9794921875	865.258728027344	-936.6541137695315	-144.3993377685547	902.0371704101565	-915.268249511719	-132.7075958251953	813.4423828125002	-935.018737792969	-66.41689300537111	751.1666259765626	-917.1858520507815	-9.70938014984131	619.3797607421876	-889.8936767578127	-71.55704498291017	581.3690185546876	-940.2998657226565	-35.00904846191407	574.9903564453126	-917.6489257812502	-44.58981323242188	495.7144470214845	-882.4445800781252	-128.0019683837891	376.9327697753907	-905.6062011718752	-103.5350418090821	380.6889648437501	-823.5252075195315	-196.6277465820313	357.7149047851563	-849.9449462890627	8.681178092956545	275.6040649414063	-844.1379394531252	7.51494359970093	278.7645874023438	-878.9411621093752	-45.06611251831055	264.6330261230469	-926.8572387695315	-335.9539489746094	795.862243652344	-583.6235351562501	-270.3349609375001	753.8674316406251	-624.7431030273439	-311.6929626464844	669.2457885742189	-602.7674560546876	-337.7824096679688	511.3471069335939	-643.6983032226564	-302.4272766113282	337.4876098632813	-723.3183593750001	-348.0739135742188	253.0529174804688	-668.3707885742189	-317.8174743652344	253.0668945312501	-705.1652221679689	-335.1504211425782	215.4859313964844	-747.2913818359376	-391.986785888672	127.3046264648438	-704.0033569335939	-381.3028869628907	135.0666046142578	-778.9263305664065	-456.0981445312501	105.6819763183594	-750.7277832031251	-258.6761474609376	53.42861175537111	-781.494323730469	-252.6875762939454	62.42634582519533	-737.4122314453126	-290.3401489257813	52.43249130249025	-681.3490600585939	-270.9690856933594	1718.358032226563	-669.2223510742189	-293.1693115234376	747.5223999023439	-600.4044189453126	-98.58692169189456	1383.350463867188	-520.5694580078126	
1227	6.13	-408.8630981445314	1693.692749023438	-805.1143798828127	-405.3762512207032	1687.099365234375	-665.3126220703126	-439.2362670898439	1515.151000976563	-726.3288574218751	-471.5396118164064	1223.699096679688	-708.6210937500001	-302.9504699707032	1471.709838867188	-738.4777832031251	-370.6928100585938	1525.258544921875	-866.410339355469	-251.4685363769532	1500.3515625	-931.8433227539065	-222.9813842773438	1489.686401367188	-893.2482910156252	-185.2472381591797	1496.336303710938	-938.925964355469	-117.0153961181641	1471.53857421875	-981.0164794921877	-118.5374603271485	1411.367431640625	-974.6667480468752	134.5043182373047	1459.752197265625	-899.0435180664065	131.8133544921875	1470.987670898438	-966.1799926757815	205.3823699951172	1474.693115234375	-895.6977539062502	-351.9686889648438	1513.599853515625	-611.2063598632814	-234.3783416748047	1450.541015625	-505.652557373047	-209.4842376708985	1474.732421875	-540.0461425781251	-165.3487396240235	1446.818359375	-502.2301025390626	-89.33885192871095	1443.70849609375	-511.731170654297	143.0460052490235	1453.847412109375	-609.7339477539064	159.1925048828125	1463.781494140625	-544.8397216796876	230.5111846923829	1469.797119140625	-616.5883789062501	-337.0785522460938	1038.214721679688	-846.245788574219	-304.9036254882813	1002.205627441406	-642.6660766601564	-475.8577575683595	1090.94970703125	-711.4275512695314	-488.1273803710939	1062.466552734375	-742.2247314453126	-474.2324829101564	1057.231079101563	-686.4729003906251	-250.6023101806641	871.4009399414065	-939.1885375976565	-165.4932861328125	864.8952636718752	-936.558288574219	-143.8557586669922	901.6372680664065	-915.1923828125002	-132.3363037109375	813.0643310546877	-934.9177246093752	-66.20145416259767	750.7647705078126	-917.0759277343752	-10.04022121429444	618.7809448242189	-889.759216308594	-71.52272033691408	581.0229492187501	-940.139831542969	-34.84937286376954	574.6726074218751	-917.4970703125002	-44.81235504150391	495.3127746582032	-882.2584228515627	-128.5585632324219	376.7327575683594	-905.4022216796877	-104.2107391357422	380.4513549804688	-823.3071899414065	-197.351791381836	357.8159790039063	-849.783142089844	7.961040496826174	275.0306701660157	-843.9685058593752	6.942753791809084	278.3208312988282	-878.6373291015627	-45.6097526550293	264.1811828613282	-926.6195068359377	-335.8308105468751	795.8137207031252	-583.3615722656251	-270.1977233886719	753.7341918945314	-624.4114379882814	-311.8528442382813	669.2261352539064	-602.5415649414064	-338.0325012207032	511.314910888672	-643.6364746093751	-302.4862060546876	337.4783020019532	-723.2261962890626	-348.2312622070313	253.0093231201172	-668.3469848632814	-316.2442932128907	248.8192291259766	-704.5939331054689	-335.2282409667969	215.451156616211	-747.2855834960939	-392.0687255859376	127.2738494873047	-704.0097656250001	-381.3422851562501	134.9890747070313	-778.9102783203127	-456.2120056152345	105.5482788085938	-750.7161865234376	-258.6771850585938	53.44982910156251	-781.5307617187502	-252.7368927001954	62.39323806762697	-737.4334106445314	-290.3403625488282	52.39342498779298	-681.3676757812501	-271.4068298339844	1718.498168945313	-669.4618530273439	-293.0776672363282	747.4390869140626	-600.1614379882814	-98.76076507568362	1383.35400390625	-520.7804565429689	
